<svg viewBox="0 0 800 500" xmlns="http://www.w3.org/2000/svg">
  <!-- PC Client -->
  <g transform="translate(50,50)">
    <rect x="0" y="0" width="200" height="400" fill="#f5f5f5" stroke="#333"/>
    <text x="70" y="30" fill="#333">PC Client</text>
    
    <!-- Couches -->
    <rect x="20" y="50" width="160" height="60" fill="#E6F3FF" stroke="#2196F3"/>
    <text x="60" y="85" fill="#333">Application</text>
    
    <rect x="20" y="130" width="160" height="60" fill="#FFE6E6" stroke="#F44336"/>
    <text x="60" y="165" fill="#333">Transport</text>
    
    <rect x="20" y="210" width="160" height="60" fill="#E6FFE6" stroke="#4CAF50"/>
    <text x="70" y="245" fill="#333">Réseau</text>
    
    <rect x="20" y="290" width="160" height="60" fill="#FFF3E0" stroke="#FF9800"/>
    <text x="65" y="325" fill="#333">Liaison</text>
  </g>
  
  <!-- Serveur -->
  <g transform="translate(550,50)">
    <rect x="0" y="0" width="200" height="400" fill="#f5f5f5" stroke="#333"/>
    <text x="70" y="30" fill="#333">Serveur</text>
    
    <!-- Couches -->
    <rect x="20" y="50" width="160" height="60" fill="#E6F3FF" stroke="#2196F3"/>
    <text x="60" y="85" fill="#333">Application</text>
    
    <rect x="20" y="130" width="160" height="60" fill="#FFE6E6" stroke="#F44336"/>
    <text x="60" y="165" fill="#333">Transport</text>
    
    <rect x="20" y="210" width="160" height="60" fill="#E6FFE6" stroke="#4CAF50"/>
    <text x="70" y="245" fill="#333">Réseau</text>
    
    <rect x="20" y="290" width="160" height="60" fill="#FFF3E0" stroke="#FF9800"/>
    <text x="65" y="325" fill="#333">Liaison</text>
  </g>
  
  <!-- Flèches -->
  <g transform="translate(250,80)">
    <path d="M0,0 L300,0" stroke="#333" stroke-width="2" marker-end="url(#arrowhead)"/>
    <path d="M300,80 L0,80" stroke="#333" stroke-width="2" marker-end="url(#arrowhead)"/>
    <path d="M0,160 L300,160" stroke="#333" stroke-width="2" marker-end="url(#arrowhead)"/>
    <path d="M300,240 L0,240" stroke="#333" stroke-width="2" marker-end="url(#arrowhead)"/>
  </g>
  
  <!-- Marqueur de flèche -->
  <defs>
    <marker id="arrowhead" markerWidth="10" markerHeight="7" refX="9" refY="3.5" orient="auto">
      <polygon points="0 0, 10 3.5, 0 7" fill="#333"/>
    </marker>
  </defs>
</svg>